P1
# Created by GIMP version 2.10.28 PNM plug-in
# This is a second comment to test my parser
50 50
0000000000000000000000000000000000000000000000000000000000000000000000
0000000000000000000000000000000000000000000000000000000000000000000000
0000000000000000000000000000000000000000000000000000000000000000000000
0000000000000000000000000000000000000000000000000000000000000000000000
0000000000000000000000000000000000000000000000000000000000000000000000
0000000000000000000000000000000000000000000000000000000000000000000000
0000000000000000000000000000000000000000000000000000000000000000000000
0000000000000000011100000000000000000000000000000000000000000000000111
0000000000000000000000000000001110000000000000011100000000000000000000
0000000000111000000000000001110000000000000000000000000000001110000000
0000000111000000000000000000000000000000111000000000000001110000000000
0000000000000000000011100000000000000111000000000000000000000000000000
1110000000000000011100000000000000000000000000000111100000000000000111
0000000000000000000000000000011110000000000000000000000000000000000000
0000000001111000000000000000000000000000000000000000000000011100000000
0000000000000000000000000000000000000001110000000000000000000000000000
0000000000000000000111000000000000000000000000000000000000000000000001
1100000000000000000000000000000000000000000000000111000000000000000000
0000000000000000000000000000000000000000000000000000000000000000000000
0000000000000000000000000000000000000000000000000000000000000000000000
0000000000000000000000000000000000000000000000000000000000000000000000
0000000000000000000000000000000000111000000000000000000000000000000000
0000000000000011100000000000000000000000000000000000000000000000111000
0000000000000000000000000000000000000000000011100000000000000000000000
0000000000000000000000001110000000000000000000000000000000000000000000
0000111000000000000000000000000000000000000000000000001110000000000000
0000000000000000000000000011100000111000000000000000000000000000000000
0000001111000011110000000000000000000000000000000000000011110000111100
0000000000000000000000000000000000001111000001111000000000000000000000
0000000000000000111100000111110000000000000000000000000000000000001110
0000001111100000000000000000000000000000000000111000000001111110000000
0000000000000000000000000011100000000111111111000000000000000000000000
0000011110000000000111111111111111111111111100000000000111100000000000
0111111111111111111111111111111111111110000000000000001111111111111111
1111111111111111110000000000000000000000000000000001111111111111111000
00000000000000000000000000000000000000000000000000
